<svg xmlns="http://www.w3.org/2000/svg" width="264.27" height="35" viewBox="0 0 264.27 35"><rect class="svg__rect" x="0" y="0" width="212.12" height="35" fill="#862333"/><rect class="svg__rect" x="210.12" y="0" width="54.150000000000006" height="35" fill="#EA4560"/><path class="svg__text" d="M13.95 18.19L13.95 18.19L13.95 17.39Q13.95 16.19 14.38 15.27Q14.80 14.35 15.60 13.85Q16.40 13.35 17.45 13.35L17.45 13.35Q18.86 13.35 19.73 14.12Q20.59 14.89 20.73 16.29L20.73 16.29L19.25 16.29Q19.14 15.37 18.71 14.96Q18.28 14.55 17.45 14.55L17.45 14.55Q16.48 14.55 15.97 15.26Q15.45 15.96 15.44 17.33L15.44 17.33L15.44 18.09Q15.44 19.47 15.93 20.20Q16.43 20.92 17.38 20.92L17.38 20.92Q18.25 20.92 18.69 20.53Q19.13 20.14 19.25 19.22L19.25 19.22L20.73 19.22Q20.60 20.59 19.72 21.35Q18.84 22.12 17.38 22.12L17.38 22.12Q16.36 22.12 15.59 21.63Q14.81 21.15 14.39 20.26Q13.97 19.37 13.95 18.19ZM30.39 22L25.04 22L25.04 13.47L26.52 13.47L26.52 20.82L30.39 20.82L30.39 22ZM40.10 22L34.52 22L34.52 13.47L40.06 13.47L40.06 14.66L36.00 14.66L36.00 17.02L39.51 17.02L39.51 18.19L36.00 18.19L36.00 20.82L40.10 20.82L40.10 22ZM45.07 22L43.53 22L46.75 13.47L48.08 13.47L51.31 22L49.77 22L49.07 20.01L45.76 20.01L45.07 22ZM47.42 15.28L46.18 18.82L48.65 18.82L47.42 15.28ZM56.75 22L55.27 22L55.27 13.47L56.75 13.47L60.56 19.54L60.56 13.47L62.04 13.47L62.04 22L60.55 22L56.75 15.95L56.75 22ZM66.64 19.16L66.64 19.16L66.64 13.47L68.12 13.47L68.12 19.18Q68.12 20.03 68.55 20.48Q68.98 20.93 69.83 20.93L69.83 20.93Q71.54 20.93 71.54 19.13L71.54 19.13L71.54 13.47L73.02 13.47L73.02 19.17Q73.02 20.53 72.15 21.32Q71.28 22.12 69.83 22.12L69.83 22.12Q68.36 22.12 67.50 21.33Q66.64 20.55 66.64 19.16ZM79.07 22L77.59 22L77.59 13.47L80.85 13.47Q82.28 13.47 83.12 14.21Q83.96 14.96 83.96 16.18L83.96 16.18Q83.96 17.44 83.14 18.13Q82.31 18.83 80.83 18.83L80.83 18.83L79.07 18.83L79.07 22ZM79.07 14.66L79.07 17.64L80.85 17.64Q81.64 17.64 82.06 17.27Q82.47 16.90 82.47 16.19L82.47 16.19Q82.47 15.50 82.05 15.09Q81.63 14.68 80.89 14.66L80.89 14.66L79.07 14.66ZM95.79 22L94.31 22L94.31 13.47L95.79 13.47L95.79 22ZM102.08 22L100.60 22L100.60 13.47L102.08 13.47L105.89 19.54L105.89 13.47L107.36 13.47L107.36 22L105.88 22L102.08 15.95L102.08 22ZM119.56 22L118.08 22L118.08 13.47L121.34 13.47Q122.77 13.47 123.61 14.21Q124.46 14.96 124.46 16.18L124.46 16.18Q124.46 17.44 123.63 18.13Q122.81 18.83 121.33 18.83L121.33 18.83L119.56 18.83L119.56 22ZM119.56 14.66L119.56 17.64L121.34 17.64Q122.14 17.64 122.55 17.27Q122.97 16.90 122.97 16.19L122.97 16.19Q122.97 15.50 122.55 15.09Q122.12 14.68 121.39 14.66L121.39 14.66L119.56 14.66ZM130.22 22L128.74 22L128.74 13.47L131.74 13.47Q133.22 13.47 134.02 14.13Q134.82 14.79 134.82 16.05L134.82 16.05Q134.82 16.90 134.41 17.48Q133.99 18.06 133.26 18.37L133.26 18.37L135.17 21.92L135.17 22L133.58 22L131.87 18.71L130.22 18.71L130.22 22ZM130.22 14.66L130.22 17.52L131.74 17.52Q132.49 17.52 132.92 17.15Q133.34 16.77 133.34 16.11L133.34 16.11Q133.34 15.43 132.95 15.05Q132.56 14.68 131.79 14.66L131.79 14.66L130.22 14.66ZM138.95 18.00L138.95 18.00L138.95 17.52Q138.95 16.28 139.39 15.32Q139.83 14.37 140.64 13.86Q141.44 13.35 142.48 13.35Q143.53 13.35 144.33 13.85Q145.14 14.35 145.58 15.29Q146.02 16.23 146.02 17.48L146.02 17.48L146.02 17.96Q146.02 19.21 145.59 20.16Q145.16 21.10 144.35 21.61Q143.55 22.12 142.50 22.12L142.50 22.12Q141.46 22.12 140.65 21.61Q139.84 21.10 139.39 20.17Q138.95 19.23 138.95 18.00ZM140.43 17.46L140.43 17.96Q140.43 19.36 140.98 20.13Q141.52 20.90 142.50 20.90L142.50 20.90Q143.48 20.90 144.01 20.15Q144.54 19.40 144.54 17.96L144.54 17.96L144.54 17.51Q144.54 16.09 144.01 15.34Q143.47 14.58 142.48 14.58L142.48 14.58Q141.52 14.58 140.98 15.33Q140.44 16.09 140.43 17.46L140.43 17.46ZM150.24 18.13L150.24 18.13L150.24 17.46Q150.24 15.53 151.17 14.44Q152.09 13.35 153.75 13.35L153.75 13.35Q155.18 13.35 156.01 14.05Q156.85 14.76 157.02 16.08L157.02 16.08L155.57 16.08Q155.32 14.54 153.78 14.54L153.78 14.54Q152.79 14.54 152.27 15.26Q151.75 15.98 151.73 17.37L151.73 17.37L151.73 18.02Q151.73 19.40 152.31 20.17Q152.90 20.93 153.93 20.93L153.93 20.93Q155.07 20.93 155.55 20.42L155.55 20.42L155.55 18.75L153.79 18.75L153.79 17.62L157.03 17.62L157.03 20.89Q156.56 21.50 155.74 21.81Q154.92 22.12 153.88 22.12L153.88 22.12Q152.81 22.12 151.98 21.63Q151.16 21.14 150.71 20.24Q150.26 19.33 150.24 18.13ZM163.13 22L161.64 22L161.64 13.47L164.64 13.47Q166.12 13.47 166.92 14.13Q167.73 14.79 167.73 16.05L167.73 16.05Q167.73 16.90 167.31 17.48Q166.90 18.06 166.16 18.37L166.16 18.37L168.08 21.92L168.08 22L166.49 22L164.78 18.71L163.13 18.71L163.13 22ZM163.13 14.66L163.13 17.52L164.65 17.52Q165.40 17.52 165.82 17.15Q166.24 16.77 166.24 16.11L166.24 16.11Q166.24 15.43 165.85 15.05Q165.47 14.68 164.69 14.66L164.69 14.66L163.13 14.66ZM177.70 22L172.12 22L172.12 13.47L177.66 13.47L177.66 14.66L173.60 14.66L173.60 17.02L177.11 17.02L177.11 18.19L173.60 18.19L173.60 20.82L177.70 20.82L177.70 22ZM181.46 19.42L181.46 19.42L182.94 19.42Q182.94 20.15 183.42 20.55Q183.90 20.95 184.80 20.95L184.80 20.95Q185.57 20.95 185.96 20.63Q186.35 20.32 186.35 19.80L186.35 19.80Q186.35 19.24 185.96 18.94Q185.56 18.63 184.53 18.32Q183.50 18.01 182.89 17.63L182.89 17.63Q181.72 16.90 181.72 15.72L181.72 15.72Q181.72 14.69 182.57 14.02Q183.41 13.35 184.75 13.35L184.75 13.35Q185.64 13.35 186.34 13.68Q187.03 14.01 187.43 14.61Q187.83 15.22 187.83 15.96L187.83 15.96L186.35 15.96Q186.35 15.29 185.93 14.91Q185.52 14.54 184.74 14.54L184.74 14.54Q184.01 14.54 183.61 14.85Q183.21 15.16 183.21 15.71L183.21 15.71Q183.21 16.18 183.64 16.50Q184.07 16.81 185.07 17.10Q186.07 17.40 186.67 17.78Q187.27 18.16 187.56 18.65Q187.84 19.13 187.84 19.79L187.84 19.79Q187.84 20.86 187.02 21.49Q186.20 22.12 184.80 22.12L184.80 22.12Q183.88 22.12 183.10 21.77Q182.32 21.43 181.89 20.83Q181.46 20.22 181.46 19.42ZM191.69 19.42L191.69 19.42L193.17 19.42Q193.17 20.15 193.65 20.55Q194.14 20.95 195.03 20.95L195.03 20.95Q195.81 20.95 196.19 20.63Q196.58 20.32 196.58 19.80L196.58 19.80Q196.58 19.24 196.19 18.94Q195.79 18.63 194.76 18.32Q193.73 18.01 193.12 17.63L193.12 17.63Q191.96 16.90 191.96 15.72L191.96 15.72Q191.96 14.69 192.80 14.02Q193.64 13.35 194.98 13.35L194.98 13.35Q195.87 13.35 196.57 13.68Q197.26 14.01 197.66 14.61Q198.06 15.22 198.06 15.96L198.06 15.96L196.58 15.96Q196.58 15.29 196.17 14.91Q195.75 14.54 194.97 14.54L194.97 14.54Q194.24 14.54 193.84 14.85Q193.44 15.16 193.44 15.71L193.44 15.71Q193.44 16.18 193.87 16.50Q194.31 16.81 195.30 17.10Q196.30 17.40 196.90 17.78Q197.50 18.16 197.79 18.65Q198.07 19.13 198.07 19.79L198.07 19.79Q198.07 20.86 197.25 21.49Q196.43 22.12 195.03 22.12L195.03 22.12Q194.11 22.12 193.33 21.77Q192.55 21.43 192.12 20.83Q191.69 20.22 191.69 19.42Z" fill="#FFFFFF"/><path class="svg__text" d="M223.56 21.34L223.56 21.34L224.42 19.55Q224.92 19.88 225.53 20.07Q226.14 20.25 226.75 20.25L226.75 20.25Q227.35 20.25 227.72 20.01Q228.09 19.78 228.09 19.36L228.09 19.36Q228.09 18.94 227.73 18.72Q227.37 18.51 226.46 18.51L226.46 18.51L224.18 18.51L224.60 13.60L229.95 13.60L229.95 15.44L226.56 15.44L226.46 16.66L227.02 16.66Q228.78 16.66 229.63 17.38Q230.48 18.10 230.48 19.30L230.48 19.30Q230.48 20.08 230.08 20.73Q229.68 21.39 228.85 21.78Q228.03 22.17 226.82 22.17L226.82 22.17Q225.93 22.17 225.06 21.95Q224.19 21.74 223.56 21.34ZM241.48 15.82L241.48 15.82Q241.48 15.11 241.75 14.58Q242.03 14.05 242.51 13.77Q243.00 13.49 243.63 13.49L243.63 13.49Q244.59 13.49 245.18 14.12Q245.78 14.75 245.78 15.82L245.78 15.82Q245.78 16.90 245.18 17.52Q244.58 18.15 243.63 18.15L243.63 18.15Q242.68 18.15 242.08 17.53Q241.48 16.90 241.48 15.82ZM244.58 22L242.86 22L248.59 13.60L250.32 13.60L244.58 22ZM242.92 15.82L242.92 15.82Q242.92 16.42 243.11 16.71Q243.31 17.01 243.63 17.01L243.63 17.01Q243.95 17.01 244.14 16.72Q244.33 16.43 244.33 15.82L244.33 15.82Q244.33 15.21 244.14 14.92Q243.95 14.63 243.63 14.63L243.63 14.63Q243.32 14.63 243.12 14.93Q242.92 15.22 242.92 15.82ZM247.41 19.78L247.41 19.78Q247.41 18.71 248.01 18.08Q248.61 17.45 249.55 17.45L249.55 17.45Q250.51 17.45 251.11 18.08Q251.71 18.71 251.71 19.78L251.71 19.78Q251.71 20.86 251.11 21.48Q250.51 22.11 249.55 22.11L249.55 22.11Q248.59 22.11 248.00 21.48Q247.41 20.86 247.41 19.78ZM248.85 19.78L248.85 19.78Q248.85 20.39 249.04 20.68Q249.23 20.97 249.55 20.97L249.55 20.97Q249.88 20.97 250.07 20.68Q250.26 20.39 250.26 19.78L250.26 19.78Q250.26 19.17 250.07 18.88Q249.88 18.59 249.55 18.59L249.55 18.59Q249.23 18.59 249.04 18.88Q248.85 19.17 248.85 19.78Z" fill="#FFFFFF" x="223.12"/></svg>